<svg xmlns="http://www.w3.org/2000/svg" width="1120" height="400" viewBox="0 0 1120 400" role="img" aria-labelledby="title desc">
  <title id="title">Training pipeline for the Forza image-to-steering model</title>
  <desc id="desc">A deterministic diagram showing data collection, filtering, crop, augmentation, balanced sampling, MobileNetV3-Small, and steering loss.</desc>
  <defs>
    <marker id="arrow" markerWidth="10" markerHeight="10" refX="8" refY="3" orient="auto" markerUnits="strokeWidth">
      <path d="M0,0 L0,6 L8,3 z" fill="#4b5563"/>
    </marker>
    <style>
      .bg { fill: #f8fafc; }
      .title { font: 700 25px Arial, sans-serif; fill: #111827; }
      .subtitle { font: 15px Arial, sans-serif; fill: #4b5563; }
      .box { fill: #ffffff; stroke: #cbd5e1; stroke-width: 2; rx: 8; }
      .box-accent { fill: #ecfeff; stroke: #0891b2; stroke-width: 2; rx: 8; }
      .box-warm { fill: #fff7ed; stroke: #ea580c; stroke-width: 2; rx: 8; }
      .label { font: 700 15px Arial, sans-serif; fill: #111827; }
      .small { font: 13px Arial, sans-serif; fill: #475569; }
      .metric { font: 700 13px Arial, sans-serif; fill: #0f766e; }
      .arrow { stroke: #4b5563; stroke-width: 2; fill: none; marker-end: url(#arrow); }
    </style>
  </defs>
  <rect class="bg" x="0" y="0" width="1120" height="400" rx="14"/>
  <text class="title" x="40" y="48">Training Pipeline</text>
  <text class="subtitle" x="40" y="74">Forza gameplay becomes steering-supervised training data.</text>
  <text class="subtitle" x="40" y="96">Augmentation and balanced sampling reduce straight-driving bias before MobileNetV3 learns steering.</text>

  <rect class="box" x="40" y="136" width="135" height="126"/>
  <text class="label" x="60" y="166">Collect</text>
  <text class="small" x="60" y="194">8 sessions</text>
  <text class="small" x="60" y="216">screen + UDP</text>
  <text class="metric" x="60" y="240">96,182 rows</text>

  <path class="arrow" d="M180 199 H218"/>
  <rect class="box" x="225" y="136" width="135" height="126"/>
  <text class="label" x="245" y="166">Filter</text>
  <text class="small" x="245" y="194">Speed &gt; 0</text>
  <text class="small" x="245" y="216">valid rows only</text>
  <text class="metric" x="245" y="240">72,942 rows</text>

  <path class="arrow" d="M365 199 H403"/>
  <rect class="box" x="410" y="136" width="135" height="126"/>
  <text class="label" x="430" y="166">Preprocess</text>
  <text class="small" x="430" y="194">EMA alpha 0.70</text>
  <text class="small" x="430" y="216">crop road band</text>
  <text class="metric" x="430" y="240">(0,75,320,122)</text>

  <path class="arrow" d="M550 199 H588"/>
  <rect class="box-accent" x="595" y="136" width="135" height="126"/>
  <text class="label" x="615" y="166">Augment</text>
  <text class="small" x="615" y="194">flip + steer sign</text>
  <text class="small" x="615" y="216">color, affine</text>
  <text class="small" x="615" y="240">noise + erasing</text>

  <path class="arrow" d="M735 199 H773"/>
  <rect class="box-warm" x="780" y="136" width="135" height="126"/>
  <text class="label" x="800" y="166">Resample</text>
  <text class="small" x="800" y="194">&gt; 3 std actions</text>
  <text class="small" x="800" y="216">512 / 1024 batch</text>
  <text class="metric" x="800" y="240">rare rows boosted</text>

  <path class="arrow" d="M920 199 H958"/>
  <rect class="box" x="965" y="136" width="115" height="126"/>
  <text class="label" x="985" y="166">Train</text>
  <text class="small" x="985" y="194">MobileNetV3</text>
  <text class="small" x="985" y="216">AdamW + cosine</text>
  <text class="metric" x="985" y="240">steering loss</text>

  <rect class="box" x="225" y="306" width="690" height="58"/>
  <text class="small" x="248" y="331">90/10 train-validation split, ImageNet normalization, and early stopping.</text>
  <text class="small" x="248" y="351">Best checkpoint is saved as best_model.pth.</text>
</svg>
